<?xml version="1.0" encoding="UTF-8"?>
<svg width="73px" height="44px" viewBox="0 0 73 44" version="1.1" xmlns="http://www.w3.org/2000/svg" xmlns:xlink="http://www.w3.org/1999/xlink">
    <!-- Generator: Sketch 64 (93537) - https://sketch.com -->
    <title>Bowtie Logo</title>
    <desc>Created with Sketch.</desc>
    <defs>
        <polygon id="path-1" points="0 0.11606192 72.8561866 0.11606192 72.8561866 43.8637771 0 43.8637771"></polygon>
    </defs>
    <g id="Page-1" stroke="none" stroke-width="1" fill="none" fill-rule="evenodd">
        <g id="Desktop" transform="translate(-476.000000, -3698.000000)">
            <g id="design" transform="translate(0.000000, -1.000000)">
                <g id="footer" transform="translate(0.000000, 3693.000000)">
                    <g id="Bowtie-Logo" transform="translate(476.000000, 6.000000)">
                        <path d="M22.9739286,19.991037 C22.9915899,19.9967407 23.0095876,20.0019012 23.0260714,20.008963 C23.0233802,20.0077407 23.0037005,20.0010864 22.9840207,19.9944321 L22.975106,19.9914444 C22.9746014,19.9911728 22.9744332,19.9911728 22.9739286,19.991037" id="Fill-1" fill="#FFFFFF"></path>
                        <path d="M28.0216982,25.9926667 C28.0072327,25.9976914 27.9927673,26.0024444 27.9783018,26.0073333 C27.9920945,26.002716 28.0021866,25.9994568 28.0122788,25.9959259 C28.0129516,25.9956543 28.0137926,25.9955185 28.0146336,25.9952469 C28.0166521,25.9945679 28.0193433,25.9936173 28.0216982,25.9926667" id="Fill-3" fill="#FFFFFF"></path>
                        <path d="M27.9791429,26.0070617 C27.9902442,26.0033951 28.0013456,25.9994568 28.0126152,25.9957901 C28.0153065,25.9948395 28.0181659,25.9938889 28.0208571,25.9929383 C28.0176613,25.9940247 27.9959631,26.001358 27.9791429,26.0070617" id="Fill-5" fill="#FFFFFF"></path>
                        <path d="M23.0160911,20.0053863 C23.0149136,20.0051147 23.0139044,20.0047072 23.0128952,20.0042998 C22.9839643,19.9945221 22.9642846,19.9881393 23.0160911,20.0053863" id="Fill-7" fill="#FFFFFF"></path>
                        <g id="Group-11">
                            <mask id="mask-2" fill="white">
                                <use xlink:href="#path-1"></use>
                            </mask>
                            <g id="Clip-10"></g>
                            <path d="M54.2550802,18.5540099 C53.8337323,18.7684248 53.4076747,18.9764372 52.9760664,19.1766848 C49.7682714,20.6646477 46.2615802,21.7412173 42.6241954,22.2874712 C39.5457484,22.7496755 36.3951424,22.8536136 33.2796908,22.6066415 C30.6666608,22.3994464 28.0830664,21.9688458 25.5802092,21.3268272 C23.8028106,20.8707529 22.0600618,20.3125115 20.384594,19.6492421 C19.7466009,19.3966848 19.1052438,19.1347282 18.5034143,18.8279542 C18.2144419,18.680561 18.0998959,18.3744681 18.2771816,18.1289944 C18.4452161,17.8964619 18.8519304,17.7987901 19.14023,17.9457746 C19.1499857,17.9508149 19.1597415,17.9559913 19.1696654,17.9606229 C19.9144673,18.3004991 20.6587645,18.6313845 21.4330018,18.9271245 C21.7890871,19.0632111 22.1480318,19.1941214 22.5094995,19.3202638 C22.5633244,19.3391988 22.6173175,19.3578613 22.6713106,19.3765238 C22.6800571,19.3795207 22.6889719,19.3827901 22.6980548,19.3856508 C22.7025963,19.3871492 22.7066332,19.3886477 22.7113429,19.3901461 C22.8105825,19.4233845 22.9094857,19.4570316 23.0087253,19.4898613 C23.2228475,19.5606972 23.4376424,19.6298985 23.6532783,19.6976012 C24.6456747,20.0087344 25.6540502,20.2863567 26.675041,20.5293783 C27.8622161,20.8123133 29.0665479,21.0485238 30.2824857,21.2348768 C30.6047622,21.2843257 30.9277115,21.3302328 31.2515018,21.3724619 C31.4255917,21.3952111 31.600018,21.4170068 31.7746124,21.4377127 C31.858041,21.447657 31.9414696,21.4571926 32.0250664,21.466592 C32.0455871,21.4689077 32.066276,21.4712235 32.0867968,21.4735393 C32.1032806,21.4753102 32.1480226,21.480078 32.1658521,21.4821214 C32.866753,21.5559542 33.5703452,21.6128954 34.2754512,21.6522638 C35.7758198,21.7359046 37.283253,21.739174 38.7839581,21.6577127 C40.4262899,21.5683505 41.8718244,21.3988892 43.5010364,21.1001523 C47.115882,20.4374279 50.4831332,19.2672731 53.6182645,17.6718303 C53.9079097,17.5244372 54.3132783,17.6222452 54.4813129,17.8550502 C54.657253,18.0986167 54.5432115,18.4072978 54.2550802,18.5540099 M51.4028659,28.2337375 C51.2432415,28.454691 50.8149972,28.5800161 50.5398175,28.4170935 C50.1650618,28.1950502 49.7850917,27.978592 49.3990664,27.7694898 C46.700253,26.3072731 43.839124,25.2350625 40.6659788,24.6869015 C40.3280594,24.6284619 39.9884581,24.5764248 39.6475111,24.5310625 C39.4705618,24.507496 39.293276,24.4859728 39.1154857,24.4655393 C39.1085894,24.4648582 39.0936194,24.4630873 39.0799949,24.4617251 C39.0500548,24.458592 39.0199465,24.4554588 38.9898382,24.4523257 C38.9121286,24.4444248 38.8342507,24.4369325 38.7563728,24.4295765 C38.0931493,24.3681399 37.4262253,24.3313598 36.7587968,24.319917 C36.1396424,24.3091554 35.5199834,24.3200533 34.9020065,24.3523381 C34.6031101,24.3680037 34.3045502,24.3885734 34.0066631,24.4140471 C33.8515802,24.4272607 33.6966654,24.4419728 33.5420871,24.4577746 C33.5239212,24.4596817 33.5057553,24.4615889 33.4875894,24.463496 C33.4689189,24.4655393 33.4430157,24.4684 33.429223,24.4700347 C33.3616055,24.4777994 33.293988,24.4855641 33.2265387,24.4937375 C32.1195963,24.6276446 31.0254373,24.828982 29.9539857,25.0912111 C29.4596378,25.2123133 28.9701677,25.3463567 28.4862484,25.4926601 C28.25867,25.5614526 28.0324373,25.6329697 27.807382,25.7070749 C27.7454834,25.7276446 27.6835848,25.7483505 27.6218544,25.7689201 C27.6243774,25.7681028 27.6119304,25.7725981 27.5705525,25.7863567 C27.4713129,25.8213659 27.3715687,25.8556941 27.2726654,25.8912483 C25.8750687,26.3914588 24.5292783,26.9920656 23.2677576,27.6906167 C23.058177,27.8066786 22.8509512,27.9256012 22.6465848,28.0477932 C22.5619788,28.0983319 22.4782138,28.1495517 22.3946171,28.201044 L22.3927668,28.2021337 C22.3648452,28.2198427 22.3367553,28.2374155 22.3090018,28.2553969 C22.1841954,28.3353598 22.0593889,28.4160037 21.9403014,28.5015517 C21.6849696,28.6853164 21.3014673,28.7065672 21.0483221,28.5015517 C20.8175479,28.3146539 20.7934949,27.9623814 21.0483221,27.7791616 C21.0558912,27.7737127 21.0637968,27.7685362 21.0711977,27.7629511 C21.2779189,27.6042514 21.5194581,27.4663938 21.7448498,27.3269015 C22.150723,27.0754341 22.5692115,26.8373164 22.9964465,26.610369 C24.4063221,25.8610068 25.9105594,25.2366972 27.4719857,24.7219108 C29.5546724,24.0353474 31.7445041,23.5881276 33.9807599,23.394691 C36.6740226,23.1616136 39.4182507,23.3429263 42.0366631,23.9014402 C45.3438659,24.6068025 48.4239949,25.9050068 51.176465,27.5347777 C51.4523175,27.698109 51.5897392,27.9750502 51.4028659,28.2337375 M20.5184834,10.7427158 C20.8077922,10.6056755 21.2161885,10.6849573 21.3815318,10.9259356 C21.3891009,10.9369697 21.3965018,10.9482762 21.4045756,10.959174 C21.589094,11.2053288 21.7692392,11.4531183 21.9625041,11.6951864 C22.3577806,12.1904929 22.7771101,12.6734031 23.2157829,13.1440533 C23.2832323,13.2163876 23.3530364,13.287496 23.4196447,13.3603752 C23.3025756,13.2324619 23.3997968,13.3395331 23.451435,13.3929325 C23.4847392,13.4273969 23.5182115,13.4618613 23.5516839,13.4961895 C23.7023935,13.6503938 23.8554581,13.8033721 24.010541,13.9547158 C24.3444235,14.2802885 24.6887346,14.5989139 25.0434742,14.9097746 C25.823935,15.5929325 26.6560341,16.2386291 27.5454903,16.8284743 C27.6615502,16.9054402 27.7787876,16.9815889 27.8970341,17.0566477 C27.9180594,17.0699975 28.0273912,17.1401523 27.9429535,17.0860718 C27.8590203,17.0324 27.9562415,17.0942452 27.9759212,17.106369 C28.0361378,17.1435579 28.0963544,17.1806105 28.1570756,17.2172545 C28.401306,17.3650563 28.6497415,17.5083628 28.9022138,17.6467653 C29.4081677,17.9239789 29.9311101,18.181304 30.4707046,18.4137003 C30.7453797,18.5319418 31.0244281,18.643917 31.3075134,18.7485362 C31.3838774,18.7767344 31.4607461,18.8045238 31.5377829,18.8317684 C31.5653682,18.8414402 31.5929535,18.8508396 31.6203705,18.8605115 C31.7650249,18.9085981 31.9101839,18.9557313 32.0565203,19.0002762 C32.648594,19.1806353 33.2559742,19.327756 33.8742876,19.4360533 C34.0307161,19.4634341 34.1878175,19.4883628 34.3454235,19.5107034 C34.4308705,19.5228272 34.5161493,19.5341337 34.6019327,19.5447591 C34.6367507,19.5491183 34.6715687,19.5530687 34.7063866,19.5572916 C35.0264765,19.5869882 35.3457253,19.6135517 35.6678336,19.6254031 C36.3408129,19.6500594 37.0084097,19.6191368 37.6768475,19.5567467 C37.6857622,19.5557932 37.6945088,19.5547034 37.7034235,19.5536136 C37.7432876,19.5487096 37.7833198,19.5439418 37.8235203,19.5389015 C37.9106493,19.5278675 37.9977783,19.5160161 38.084571,19.5033474 C38.2608475,19.4777375 38.4364512,19.4488582 38.6110456,19.416982 C38.9716724,19.3511864 39.3284304,19.2720409 39.680647,19.1811802 C40.0503567,19.0855517 40.408965,18.9701709 40.7707691,18.8569697 C40.7842253,18.8522019 40.7976816,18.8475703 40.8111378,18.8429387 C40.8536931,18.8279542 40.8962484,18.8129697 40.9388037,18.7977127 C41.0316516,18.7643381 41.1241631,18.7301461 41.2160018,18.6954093 C41.4038843,18.6241647 41.5899166,18.549787 41.7742668,18.4725486 C42.5611194,18.1427529 43.3134903,17.7605115 44.0320525,17.3410811 C44.1368429,17.279917 44.2409604,17.2179356 44.3444051,17.1551368 C44.3893152,17.1278923 44.4338889,17.1006477 44.4786309,17.0729944 C44.4919189,17.0649573 44.5225318,17.0457498 44.5423797,17.0333536 C44.7358129,16.9108892 44.9272276,16.7865176 45.1161194,16.6594217 C45.521488,16.386431 45.9159235,16.1025424 46.2999304,15.8097994 C48.1190433,14.4233226 49.7006539,12.8563505 51.1339097,11.2152731 C51.3312115,10.9894155 51.6810733,10.8824805 51.9967899,11.0320533 C52.2729788,11.1628272 52.419988,11.5055641 52.2231908,11.731013 C51.8203452,12.1919913 51.4067346,12.6467034 50.9808452,13.093787 C49.5120986,14.6356941 47.9018935,16.1003628 46.0533452,17.3512978 C44.6232853,18.3191616 43.061859,19.1704186 41.3419857,19.7617622 C39.8959465,20.2588396 38.376571,20.5752854 36.8042115,20.6432607 C35.4444604,20.7022452 34.0651977,20.5643876 32.7565802,20.2625176 C31.4984235,19.9723628 30.2887092,19.5308644 29.1644419,18.991013 C28.0707876,18.4656012 27.0469373,17.8425176 26.0905364,17.1648087 C25.2362346,16.5594341 24.4362622,15.9042019 23.6860779,15.2145053 C23.0220134,14.6039542 22.3957945,13.9657498 21.8045618,13.3080656 C21.4114719,12.8707901 21.0346977,12.4235703 20.6801263,11.965044 C20.5467415,11.792722 20.4141977,11.6194464 20.2922507,11.4416755 C20.1262346,11.1996074 20.2184097,10.8849325 20.5184834,10.7427158 M69.1467438,24.5369201 C73.1839465,22.3948149 73.2138866,21.4818489 72.506594,21.1476941 C71.7993014,20.8134031 68.1447599,19.1427653 68.7341424,17.9015022 C71.0920088,14.3212916 69.7362945,14.3691059 69.0290018,14.1304433 C68.3217092,13.8916446 64.7260387,13.2711492 65.7870618,11.982208 C69.8616055,7.03241238 62.2504304,6.92220805 61.3074857,5.44241858 C60.3642046,3.96249288 64.7850779,0.811929412 61.837829,0.668759133 C49.813518,0.382418576 47.0432184,6.39706873 44.5676101,11.1230502 C42.0920018,15.8488954 40.3236862,17.5196693 35.6671608,17.5196693 C31.0108037,17.5196693 28.9632714,13.2711492 27.9991332,11.3818737 C26.4718521,8.38905635 23.3086309,3.98183653 21.2579028,2.58895728 C19.2073429,1.19607802 8.55758479,-1.80395913 10.4096654,1.89244954 C12.2617461,5.58899443 10.7403521,6.12462291 9.41743733,6.49964458 C8.09452258,6.87466625 3.99340276,7.30322353 6.17617005,10.6247467 C8.35910553,13.9461337 2.93490276,13.9996693 2.40573687,15.0711988 C1.87657097,16.142592 6.70533594,18.3925858 3.2655894,19.624722 C-0.17398894,20.8568582 -0.769426728,22.2497375 0.884342857,23.1603876 C5.05173456,25.2497746 3.72865161,25.8390749 3.06727834,27.1246105 C2.40573687,28.4104186 1.87657097,28.7854402 5.31631751,30.2318551 C8.75606406,31.67827 5.31631751,34.3568211 5.77937972,35.6426291 C6.24244194,36.9283009 11.4679972,37.5711368 11.3357899,39.2318303 C11.2034143,40.8926601 8.35910553,43.3569325 12.6587046,43.5175393 C16.9583037,43.6782824 19.7365088,42.3390749 23.1762553,40.1962885 C26.6160018,38.0533659 28.2696032,31.67827 31.0478083,28.517626 C33.8260134,25.3568458 39.8456539,26.0532173 41.6792323,28.7854402 C49.2830065,42.9152978 53.7625825,42.6767715 54.5289143,43.0109263 C55.2952461,43.3450811 64.7850779,45.3500099 62.3683406,41.7219851 C59.9516032,38.0940966 62.7809419,37.6644495 64.1366562,37.1393102 C65.4923705,36.6143071 68.0268498,35.6117065 67.0839051,34.2274093 C66.140624,32.8429759 65.1386401,31.0768458 66.6711355,30.5993845 C70.0900249,29.6447344 69.9130756,29.2629015 69.9719465,28.3559294 C70.0309857,27.4488211 67.4374673,25.4440285 69.1467438,24.5369201" id="Fill-9" fill="#FFFFFF" mask="url(#mask-2)"></path>
                        </g>
                    </g>
                </g>
            </g>
        </g>
    </g>
</svg>